<?xml version="1.0" encoding="UTF-8"?>
<svg version="1.1" xmlns="http://www.w3.org/2000/svg" width="1280" height="853">
<path d="M0 0 C422.4 0 844.8 0 1280 0 C1280 281.49 1280 562.98 1280 853 C857.6 853 435.2 853 0 853 C0 571.51 0 290.02 0 0 Z " fill="#25192F" transform="translate(0,0)"/>
<path d="M0 0 C7.10249757 -0.02290307 14.20486803 -0.04283197 21.30737305 -0.05493164 C23.72567172 -0.05997349 26.14396733 -0.06680678 28.56225586 -0.07543945 C32.02979283 -0.08751157 35.49728966 -0.09322963 38.96484375 -0.09765625 C40.05337143 -0.10281754 41.14189911 -0.10797882 42.26341248 -0.11329651 C43.76485558 -0.11340981 43.76485558 -0.11340981 45.29663086 -0.11352539 C46.62566689 -0.11685631 46.62566689 -0.11685631 47.98155212 -0.12025452 C50 0 50 0 51 1 C51.08737645 2.85369611 51.10698153 4.71067541 51.09765625 6.56640625 C51.09443359 7.69111328 51.09121094 8.81582031 51.08789062 9.97460938 C51.07532227 11.75061523 51.07532227 11.75061523 51.0625 13.5625 C51.05798828 14.75037109 51.05347656 15.93824219 51.04882812 17.16210938 C51.03699686 20.10809412 51.01906076 23.05405316 51 26 C57.27 26 63.54 26 70 26 C70 17.42 70 8.84 70 0 C135.67 0 201.34 0 269 0 C269 60.23784289 269 60.23784289 261.87109375 69.14453125 C254.5510004 76.40349648 245.63889444 79.30580245 235.53193665 79.27174377 C234.27407098 79.27937403 234.27407098 79.27937403 232.99079388 79.28715843 C230.18823293 79.30179057 227.38584838 79.30235216 224.58325195 79.30297852 C222.57068033 79.31064203 220.55811191 79.31918885 218.54554749 79.32855225 C214.21418723 79.34682058 209.88287006 79.35886597 205.55147743 79.36609077 C198.69672092 79.37758869 191.84205943 79.40305243 184.98735046 79.43040466 C174.13859306 79.47205335 163.28983105 79.50446376 152.44103163 79.53287882 C133.03123192 79.58381107 113.62147286 79.64619021 94.2117402 79.71821922 C87.40406387 79.74306318 80.59639971 79.76253079 73.78869498 79.77760136 C69.54349261 79.78784698 65.29830923 79.80199402 61.05312157 79.81707764 C59.09203416 79.82320374 57.13094076 79.82767942 55.16984558 79.83033562 C38.23138925 79.25337464 38.23138925 79.25337464 22 83 C20.58167116 83.33045633 19.15196002 83.61586159 17.71484375 83.8515625 C16.93689453 83.98046875 16.15894531 84.109375 15.35742188 84.2421875 C14.55884766 84.36851562 13.76027344 84.49484375 12.9375 84.625 C11.73383789 84.82609375 11.73383789 84.82609375 10.50585938 85.03125 C6.90783938 85.61648811 3.66837707 86 0 86 C0 78.41 0 70.82 0 63 C10.23 63 20.46 63 31 63 C31 57.39 31 51.78 31 46 C20.77 46 10.54 46 0 46 C0 30.82 0 15.64 0 0 Z " fill="#9ADC8C" transform="translate(514,293)"/>
<path d="M0 0 C45.21 0 90.42 0 137 0 C137 26.2391674 137 26.2391674 136.1484375 36.09765625 C135.96152329 38.47398855 135.77640136 40.85046228 135.59277344 43.22705078 C135.4952478 44.47399719 135.39772217 45.7209436 135.29724121 47.00567627 C134.79412261 53.62283551 134.40519846 60.24771655 133.99854279 66.87134933 C133.7033695 71.64043194 133.3946923 76.40866025 133.08743668 81.17697716 C132.82642367 85.2403455 132.57137847 89.30393518 132.328125 93.3684082 C132.0867578 97.39576585 131.82977653 101.42186718 131.56254196 105.44758797 C131.46535618 106.95205241 131.37355283 108.45687658 131.28776932 109.96203423 C130.37242958 125.91460359 127.28955216 139.97091473 115 151 C113.948125 151.99 113.948125 151.99 112.875 153 C96.01556622 164.72830176 72.81767833 164.71258657 53 166 C51.73736328 166.08491699 50.47472656 166.16983398 49.17382812 166.25732422 C32.45617761 167.38077896 15.74167725 168.23901467 -1 169 C-1 136.33 -1 103.66 -1 70 C2.96 69.01 2.96 69.01 7 68 C8.64621414 67.34247424 10.27716286 66.64264418 11.875 65.875 C15.80291971 64 15.80291971 64 18 64 C18 63.34 18 62.68 18 62 C19.6436814 60.31066078 21.3142876 58.64740076 23 57 C28.39976192 51.60023808 30.44245454 43.90281822 31.5 36.5 C30.1686178 27.18032463 27.09884548 18.43071885 20 12 C13.8493749 7.6460595 7.21941242 4.18670178 0 2 C0 1.34 0 0.68 0 0 Z " fill="#5B4670" transform="translate(555,381)"/>
<path d="M0 0 C19.47 0 38.94 0 59 0 C59 26.2391674 59 26.2391674 58.1484375 36.09765625 C57.96152329 38.47398855 57.77640136 40.85046228 57.59277344 43.22705078 C57.4952478 44.47399719 57.39772217 45.7209436 57.29724121 47.00567627 C56.79412261 53.62283551 56.40519846 60.24771655 55.99854279 66.87134933 C55.7033695 71.64043194 55.3946923 76.40866025 55.08743668 81.17697716 C54.82642367 85.2403455 54.57137847 89.30393518 54.328125 93.3684082 C54.0867578 97.39576585 53.82977653 101.42186718 53.56254196 105.44758797 C53.46535618 106.95205241 53.37355283 108.45687658 53.28776932 109.96203423 C52.37242958 125.91460359 49.28955216 139.97091473 37 151 C35.948125 151.99 35.948125 151.99 34.875 153 C24.58070054 160.1612518 12.41557015 163 0 163 C0 109.21 0 55.42 0 0 Z " fill="#FCFBFC" transform="translate(633,381)"/>
<path d="M0 0 C0.33 0 0.66 0 1 0 C1 3.96 1 7.92 1 12 C2.485 11.505 2.485 11.505 4 11 C3.98259766 11.804375 3.98259766 11.804375 3.96484375 12.625 C3.90919064 17.4588699 4.12159045 22.11182486 4.66455078 26.92041016 C5.37460137 33.93689616 5.16267125 39.06246652 0.86328125 44.953125 C-5.5142972 51.95910217 -13.57774253 56.74340318 -23.16544914 57.37183189 C-28.39967274 57.57696099 -33.63358834 57.54945434 -38.87084961 57.5300293 C-40.88401455 57.53713457 -42.89717393 57.54600124 -44.9103241 57.55648804 C-50.35664502 57.58002632 -55.80272574 57.5793746 -61.24908519 57.57457328 C-66.96147741 57.5739782 -72.67377488 57.5966981 -78.38612366 57.61714172 C-89.20643588 57.65251903 -100.02668103 57.66856232 -110.84704453 57.6769169 C-126.71132018 57.68987034 -142.57553882 57.72825049 -158.43975925 57.77101612 C-159.60577307 57.77415481 -160.77178689 57.77729349 -161.97313446 57.78052729 C-164.29907019 57.78680892 -166.62500576 57.79315254 -168.95094115 57.79955989 C-175.7419032 57.8175656 -182.53283248 57.8287164 -189.32381618 57.83385694 C-193.55590094 57.83770482 -197.78797392 57.84532657 -202.02005196 57.8536644 C-203.97469526 57.85660971 -205.929342 57.85786353 -207.88398743 57.85725212 C-224.79414815 57.25944896 -224.79414815 57.25944896 -241 61 C-242.41832884 61.33045633 -243.84803998 61.61586159 -245.28515625 61.8515625 C-246.06310547 61.98046875 -246.84105469 62.109375 -247.64257812 62.2421875 C-248.44115234 62.36851562 -249.23972656 62.49484375 -250.0625 62.625 C-251.26616211 62.82609375 -251.26616211 62.82609375 -252.49414062 63.03125 C-256.09216062 63.61648811 -259.33162293 64 -263 64 C-263 56.41 -263 48.82 -263 41 C-252.77 41 -242.54 41 -232 41 C-232 35.39 -232 29.78 -232 24 C-242.23 24 -252.46 24 -263 24 C-263 23.67 -263 23.34 -263 23 C-252.77 23 -242.54 23 -232 23 C-231.67 22.34 -231.34 21.68 -231 21 C-230.34 21.33 -229.68 21.66 -229 22 C-228.375 24.0625 -228.375 24.0625 -228 26 C-227.67 25.34 -227.34 24.68 -227 24 C-226.34 24.33 -225.68 24.66 -225 25 C-225.144375 25.680625 -225.28875 26.36125 -225.4375 27.0625 C-225.85426536 29.23894134 -226.19721355 31.42979827 -226.5 33.625 C-227 37 -227 37 -228 40 C-227.67 40.66 -227.34 41.32 -227 42 C-227.66 42.99 -228.32 43.98 -229 45 C-229.70382812 44.855625 -230.40765625 44.71125 -231.1328125 44.5625 C-239.15761425 43.05392108 -246.8480839 42.78293715 -255 43 C-255.66 44.32 -256.32 45.64 -257 47 C-257.66 47 -258.32 47 -259 47 C-258.7525 48.5778125 -258.7525 48.5778125 -258.5 50.1875 C-258.10430322 53.20468796 -257.90821029 55.97093972 -258 59 C-257.01 58.34 -256.02 57.68 -255 57 C-255 57.99 -255 58.98 -255 60 C-253.52031676 59.85950482 -252.04125484 59.71245174 -250.5625 59.5625 C-249.73878906 59.48128906 -248.91507813 59.40007812 -248.06640625 59.31640625 C-246.01337975 59.21069185 -246.01337975 59.21069185 -245 58 C-243.33382885 57.95936168 -241.66611905 57.957279 -240 58 C-240.33 57.01 -240.66 56.02 -241 55 C-239.78763672 55.03480469 -239.78763672 55.03480469 -238.55078125 55.0703125 C-237.48214844 55.08835937 -236.41351562 55.10640625 -235.3125 55.125 C-233.72888672 55.15980469 -233.72888672 55.15980469 -232.11328125 55.1953125 C-228.9298205 54.99559727 -226.89742518 54.26382035 -224 53 C-222.34178227 52.62690101 -220.67422986 52.29299023 -219 52 C-216.29599106 51.49498657 -214.03677009 51.01562729 -211.5 49.9375 C-208.08350443 48.65631416 -204.73528787 48.55830106 -201.109375 48.34375 C-200.41328125 48.2303125 -199.7171875 48.116875 -199 48 C-198.505 47.01 -198.505 47.01 -198 46 C-195.05859375 45.5859375 -195.05859375 45.5859375 -191.4375 45.375 C-190.23996094 45.30023438 -189.04242187 45.22546875 -187.80859375 45.1484375 C-186.88175781 45.09945312 -185.95492187 45.05046875 -185 45 C-185 44.01 -185 43.02 -185 42 C-183.3603125 42.0928125 -183.3603125 42.0928125 -181.6875 42.1875 C-175.03518052 42.19929489 -168.85616276 39.88281394 -162.5625 37.9375 C-159.39903677 37.10500968 -156.3532193 36.55914912 -153.125 36.0625 C-147.83737593 35.22656445 -143.00721582 33.8604305 -138 32 C-135 31 -135 31 -131.20703125 30.6171875 C-124.61081936 29.93183215 -118.17015648 28.49152399 -111.6875 27.125 C-110.44548828 26.86847656 -109.20347656 26.61195313 -107.92382812 26.34765625 C-101.14859406 24.93363257 -94.43267675 23.37838113 -87.72631836 21.66943359 C-83.8210089 20.71050474 -79.89700405 19.94593503 -75.9375 19.25 C-75.20595703 19.11207031 -74.47441406 18.97414063 -73.72070312 18.83203125 C-70.35889695 18.23423987 -68.29120301 17.90293233 -65 19 C-65 18.34 -65 17.68 -65 17 C-64.030625 16.896875 -63.06125 16.79375 -62.0625 16.6875 C-59.12319667 16.27434491 -56.48543223 15.54824837 -53.6875 14.5625 C-48.86836775 12.87374425 -44.01434525 11.91320857 -39 11 C-37.67742187 10.72542969 -37.67742187 10.72542969 -36.328125 10.4453125 C-34 10 -34 10 -32 10 C-29.29404509 9.1420143 -26.61537193 8.2306174 -23.95703125 7.234375 C-19.85911863 5.75477469 -16.16902436 4.82100706 -11.8125 4.5 C-7.36848007 4.16773683 -3.28073158 3.28073158 0 0 Z " fill="#79D287" transform="translate(777,315)"/>
<path d="M0 0 C1.485 0.495 1.485 0.495 3 1 C3.6875 3.0625 3.6875 3.0625 4 5 C4.33 4.34 4.66 3.68 5 3 C5.66 3.33 6.32 3.66 7 4 C6.855625 4.680625 6.71125 5.36125 6.5625 6.0625 C6.14573464 8.23894134 5.80278645 10.42979827 5.5 12.625 C5 16 5 16 4 19 C4.495 19.99 4.495 19.99 5 21 C4.34 21.99 3.68 22.98 3 24 C2.29617188 23.855625 1.59234375 23.71125 0.8671875 23.5625 C-7.15761425 22.05392108 -14.8480839 21.78293715 -23 22 C-23.66 23.32 -24.32 24.64 -25 26 C-25.66 26 -26.32 26 -27 26 C-26.835 27.051875 -26.67 28.10375 -26.5 29.1875 C-26.10430322 32.20468796 -25.90821029 34.97093972 -26 38 C-25.01 37.34 -24.02 36.68 -23 36 C-23 36.99 -23 37.98 -23 39 C-21.52031676 38.85950482 -20.04125484 38.71245174 -18.5625 38.5625 C-17.73878906 38.48128906 -16.91507813 38.40007812 -16.06640625 38.31640625 C-14.01337975 38.21069185 -14.01337975 38.21069185 -13 37 C-11.33382885 36.95936168 -9.66611905 36.957279 -8 37 C-8.33 36.01 -8.66 35.02 -9 34 C-7.78763672 34.03480469 -7.78763672 34.03480469 -6.55078125 34.0703125 C-5.48214844 34.08835937 -4.41351562 34.10640625 -3.3125 34.125 C-1.72888672 34.15980469 -1.72888672 34.15980469 -0.11328125 34.1953125 C2.96576765 34.17122922 2.96576765 34.17122922 5.4765625 32.97265625 C8.7532159 31.70967375 11.2087167 31.98326509 14.6875 32.3125 C16.39486328 32.46138672 16.39486328 32.46138672 18.13671875 32.61328125 C21 33 21 33 23 34 C24.45148542 34.08013115 25.90673492 34.0952294 27.36035156 34.08007812 C28.32777283 34.07423706 29.29519409 34.068396 30.29193115 34.06237793 C31.39700012 34.05210571 32.50206909 34.0418335 33.640625 34.03125 C36.20640236 34.01962515 38.77210135 34.01003374 41.33789062 34.00390625 C42.06423077 34.00204063 42.79057091 34.00017502 43.53892136 33.99825287 C54.81279032 33.98075089 66.08615954 34.11118087 77.359375 34.21875 C79.75459797 34.24121227 82.14982095 34.26367319 84.54504395 34.28613281 C90.69247457 34.3442236 96.83989062 34.40374857 102.98730469 34.46356201 C109.31704804 34.52485933 115.64680587 34.58462352 121.9765625 34.64453125 C134.31772265 34.76155234 146.65886628 34.88022617 159 35 C159 35.33 159 35.66 159 36 C158.22677241 36.00423194 157.45354483 36.00846388 156.6568861 36.01282406 C137.80952991 36.11629976 118.96221008 36.22496217 100.1149168 36.33933926 C91.0003705 36.39452798 81.88582029 36.4479857 72.77124023 36.49731445 C64.8234646 36.54033283 56.87571611 36.58665402 48.92798263 36.63687855 C44.72293431 36.66333805 40.51789089 36.68818623 36.3128109 36.70907402 C32.34757616 36.72882275 28.38239241 36.75301765 24.4172039 36.78049088 C22.96891975 36.78976574 21.5206245 36.79747421 20.07232285 36.80341911 C5.21356157 36.48037463 5.21356157 36.48037463 -9 40 C-10.41832884 40.33045633 -11.84803998 40.61586159 -13.28515625 40.8515625 C-14.06310547 40.98046875 -14.84105469 41.109375 -15.64257812 41.2421875 C-16.44115234 41.36851562 -17.23972656 41.49484375 -18.0625 41.625 C-19.26616211 41.82609375 -19.26616211 41.82609375 -20.49414062 42.03125 C-24.09216062 42.61648811 -27.33162293 43 -31 43 C-31 35.41 -31 27.82 -31 20 C-20.77 20 -10.54 20 0 20 C0 14.39 0 8.78 0 3 C-10.23 3 -20.46 3 -31 3 C-31 2.67 -31 2.34 -31 2 C-20.77 2 -10.54 2 0 2 C0 1.34 0 0.68 0 0 Z " fill="#66B18F" transform="translate(545,336)"/>
<path d="M0 0 C6.6 0 13.2 0 20 0 C20.020625 2.454375 20.04125 4.90875 20.0625 7.4375 C20.071604 8.21150146 20.08070801 8.98550293 20.09008789 9.78295898 C20.09724913 11.52221717 20.05024702 13.26145304 20 15 C19 16 19 16 17.14233398 16.11352539 C16.35157471 16.10828857 15.56081543 16.10305176 14.74609375 16.09765625 C13.89208984 16.09443359 13.03808594 16.09121094 12.15820312 16.08789062 C11.26037109 16.07951172 10.36253906 16.07113281 9.4375 16.0625 C8.53580078 16.05798828 7.63410156 16.05347656 6.70507812 16.04882812 C4.47002411 16.03700244 2.23500398 16.01906638 0 16 C0 10.72 0 5.44 0 0 Z " fill="#1E1328" transform="translate(573,517)"/>
<path d="M0 0 C64.35 0 128.7 0 195 0 C190.74021722 3.19483708 190.03335727 3.372324 185.03125 3.328125 C183.23324951 3.32135742 183.23324951 3.32135742 181.39892578 3.31445312 C180.11228027 3.29318359 178.82563477 3.27191406 177.5 3.25 C176.18112793 3.23904297 174.86225586 3.22808594 173.50341797 3.21679688 C159.99563223 3.08587106 146.49454926 2.59150741 133 2 C133 2.66 133 3.32 133 4 C132.34701935 3.85748306 131.6940387 3.71496613 131.02127075 3.56813049 C121.51313657 1.72062024 112.2546115 1.76130154 102.6171875 1.83984375 C100.86793349 1.84612728 99.11867543 1.85136299 97.36941528 1.85560608 C92.80327606 1.8688015 88.237275 1.89320007 83.67120361 1.92095947 C76.32913593 1.96439038 68.98702713 1.99376664 61.64487076 2.0170002 C59.08439429 2.02722512 56.52402659 2.04426101 53.96359253 2.06199646 C52.40525407 2.06881975 50.84691465 2.07542858 49.28857422 2.08178711 C48.21957634 2.09189316 48.21957634 2.09189316 47.12898254 2.10220337 C42.22726177 2.11363088 42.22726177 2.11363088 40 1 C40 1.66 40 2.32 40 3 C37.66705225 3.04241723 35.33297433 3.04092937 33 3 C32.505 2.505 32.505 2.505 32 2 C29.62661361 1.84028023 27.27881728 1.7407567 24.90234375 1.68359375 C24.19348526 1.66281265 23.48462677 1.64203156 22.75428772 1.62062073 C20.48212695 1.55505402 18.20984736 1.4962077 15.9375 1.4375 C14.40037817 1.39432151 12.8632685 1.35070745 11.32617188 1.30664062 C7.5509041 1.19936551 3.7755164 1.09811863 0 1 C0 0.67 0 0.34 0 0 Z " fill="#0C2116" transform="translate(568,372)"/>
<path d="M0 0 C16.5 0 33 0 50 0 C50 6.93 50 13.86 50 21 C49.67 21 49.34 21 49 21 C49 14.73 49 8.46 49 2 C33.16 2 17.32 2 1 2 C0.98962027 10.27688886 0.98962027 10.27688886 3 18 C3.33 15.69 3.66 13.38 4 11 C6.66264297 13.54687588 7.86481227 15.00862329 8.375 18.75 C8 22 8 22 5.5 24.5 C2.35019997 27.78289017 2.66534269 30.97012639 2.6875 35.375 C2.76754852 37.58433905 2.8639767 39.79339979 3 42 C6.11143567 43.03714522 8.49468096 43.20031861 11.76171875 43.31640625 C13.43911133 43.37924805 13.43911133 43.37924805 15.15039062 43.44335938 C16.31763672 43.48267578 17.48488281 43.52199219 18.6875 43.5625 C19.86634766 43.60568359 21.04519531 43.64886719 22.25976562 43.69335938 C25.17305883 43.79951176 28.08643757 43.90156242 31 44 C31 44.33 31 44.66 31 45 C20.77 45 10.54 45 0 45 C0 30.15 0 15.3 0 0 Z " fill="#A0D29D" transform="translate(514,293)"/>
<path d="M0 0 C5.94 0 11.88 0 18 0 C18 5.28 18 10.56 18 16 C12.06 16 6.12 16 0 16 C0 10.72 0 5.44 0 0 Z " fill="#272831" transform="translate(530,307)"/>
<path d="M0 0 C-3 2 -3 2 -6 3 C-8.26052204 4.8362295 -8.26052204 4.8362295 -8.24723816 7.58030701 C-8.24581314 8.67327591 -8.24438812 9.76624481 -8.24291992 10.89233398 C-8.24599655 12.13220566 -8.24907318 13.37207733 -8.25224304 14.64952087 C-8.24533222 16.01504697 -8.23806431 17.38057129 -8.23046875 18.74609375 C-8.22927489 20.15503395 -8.22882422 21.56397496 -8.2290802 22.97291565 C-8.227512 25.94138512 -8.21921246 28.90973461 -8.20581055 31.87817383 C-8.18908117 35.62555448 -8.18506117 39.37280104 -8.18565178 43.12021446 C-8.24091566 63.20078301 -8.24091566 63.20078301 -7.25834656 83.25035095 C-6.91446314 88.01273689 -7.294266 92.30132312 -8 97 C-7.01 96.505 -7.01 96.505 -6 96 C-5.21625 96.020625 -4.4325 96.04125 -3.625 96.0625 C-0.83106728 95.99597779 0.62529681 95.40723152 3 94 C3 94.99 3 95.98 3 97 C3.66 97 4.32 97 5 97 C5 97.66 5 98.32 5 99 C-2.92 99.495 -2.92 99.495 -11 100 C-11 67.33 -11 34.66 -11 1 C-6.99783658 0.33297276 -3.92748389 -0.11551423 0 0 Z " fill="#5D4B6F" transform="translate(565,450)"/>
<path d="M0 0 C1.70736328 0.14888672 1.70736328 0.14888672 3.44921875 0.30078125 C6.3125 0.6875 6.3125 0.6875 8.3125 1.6875 C9.76398542 1.76763115 11.21923492 1.7827294 12.67285156 1.76757812 C13.64027283 1.76173706 14.60769409 1.755896 15.60443115 1.74987793 C16.70950012 1.73960571 17.81456909 1.7293335 18.953125 1.71875 C21.51890236 1.70712515 24.08460135 1.69753374 26.65039062 1.69140625 C27.37673077 1.68954063 28.10307091 1.68767502 28.85142136 1.68575287 C40.12529032 1.66825089 51.39865954 1.79868087 62.671875 1.90625 C65.06709797 1.92871227 67.46232095 1.95117319 69.85754395 1.97363281 C76.00497457 2.0317236 82.15239062 2.09124857 88.29980469 2.15106201 C94.62954804 2.21235933 100.95930587 2.27212352 107.2890625 2.33203125 C119.63022265 2.44905234 131.97136628 2.56772617 144.3125 2.6875 C144.3125 3.0175 144.3125 3.3475 144.3125 3.6875 C143.53927241 3.69173194 142.76604483 3.69596388 141.9693861 3.70032406 C123.12202991 3.80379976 104.27471008 3.91246217 85.4274168 4.02683926 C76.3128705 4.08202798 67.19832029 4.1354857 58.08374023 4.18481445 C50.1359646 4.22783283 42.18821611 4.27415402 34.24048263 4.32437855 C30.03543431 4.35083805 25.83039089 4.37568623 21.6253109 4.39657402 C17.66007616 4.41632275 13.69489241 4.44051765 9.7297039 4.46799088 C8.28141975 4.47726574 6.8331245 4.48497421 5.38482285 4.49091911 C-9.47187858 4.17866048 -9.47187858 4.17866048 -23.6875 7.6875 C-26.35322015 8.18063497 -28.98565717 8.41273632 -31.6875 8.6875 C-31.6875 8.0275 -31.6875 7.3675 -31.6875 6.6875 C-28.55251708 4.82973235 -26.31278568 4.48609524 -22.6875 4.6875 C-23.0175 3.6975 -23.3475 2.7075 -23.6875 1.6875 C-22.87925781 1.71070313 -22.07101562 1.73390625 -21.23828125 1.7578125 C-20.16964844 1.77585937 -19.10101562 1.79390625 -18 1.8125 C-16.94425781 1.83570313 -15.88851562 1.85890625 -14.80078125 1.8828125 C-11.72173235 1.85872922 -11.72173235 1.85872922 -9.2109375 0.66015625 C-5.9342841 -0.60282625 -3.4787833 -0.32923491 0 0 Z " fill="#46A084" transform="translate(559.6875,368.3125)"/>
<path d="M0 0 C65.34 0 130.68 0 198 0 C198 14 198 14 197 16 C196.34 16 195.68 16 195 16 C193.95023036 12.85069107 193.89868405 10.61185544 193.9375 7.3125 C193.94652344 6.31863281 193.95554687 5.32476562 193.96484375 4.30078125 C193.98224609 3.16189453 193.98224609 3.16189453 194 2 C189.34947128 1.73067479 189.34947128 1.73067479 185 3 C185 2.34 185 1.68 185 1 C183.74421143 1.01252808 182.48842285 1.02505615 181.19458008 1.03796387 C165.12977315 1.19763368 149.06490972 1.35103811 133 1.5 C131.71950397 1.51187725 130.43900795 1.5237545 129.11970901 1.53599167 C95.72549212 1.84408193 62.33329979 2.10019278 28.9375 2.0625 C28.17326721 2.06164398 27.40903442 2.06078796 26.62164307 2.05990601 C17.74773581 2.04917135 8.87386408 2.03026515 0 2 C0 1.34 0 0.68 0 0 Z " fill="#D5ED99" transform="translate(585,294)"/>
<path d="M0 0 C10.89 0 21.78 0 33 0 C33.02262903 10.68368954 33.04096024 21.36736305 33.05181217 32.05107117 C33.05702161 37.0124094 33.06408396 41.97373032 33.07543945 46.93505859 C33.08633735 51.72666595 33.09229144 56.51825669 33.09487724 61.30987549 C33.09671907 63.13421897 33.10031565 64.95856158 33.10573006 66.78289795 C33.11303216 69.3461704 33.11398709 71.909375 33.11352539 74.47265625 C33.11712067 75.22000534 33.12071594 75.96735443 33.12442017 76.73735046 C33.11505036 81.57248174 32.68073139 86.21180499 32 91 C31.67 91 31.34 91 31 91 C30.80327635 89.27185839 30.61803201 87.54240803 30.4375 85.8125 C30.33308594 84.84957031 30.22867188 83.88664062 30.12109375 82.89453125 C30 80 30 80 30.5 77.62451172 C31.0026208 74.98624335 31.03208992 72.78758012 30.87890625 70.11328125 C30.83040527 69.18314209 30.7819043 68.25300293 30.73193359 67.29467773 C30.67602051 66.31055908 30.62010742 65.32644043 30.5625 64.3125 C30.18968493 56.85205617 29.88683666 49.40801201 29.875 41.9375 C29.87056885 41.21925049 29.8661377 40.50100098 29.86157227 39.76098633 C29.86960628 36.83346225 29.98950641 34.05905896 30.50219727 31.17358398 C31.01676245 27.89313629 31.11345934 24.82646171 31.09765625 21.5078125 C31.09443359 20.30898438 31.09121094 19.11015625 31.08789062 17.875 C31.07951172 16.6375 31.07113281 15.4 31.0625 14.125 C31.05798828 12.86429687 31.05347656 11.60359375 31.04882812 10.3046875 C31.0370796 7.20307614 31.02065167 4.10156275 31 1 C29.13021484 1.26103516 29.13021484 1.26103516 27.22265625 1.52734375 C21.58706712 2.15352032 16.08637604 1.88774965 10.4375 1.5625 C9.42880859 1.51029297 8.42011719 1.45808594 7.38085938 1.40429688 C4.92015084 1.27601349 2.45999946 1.14112915 0 1 C0 0.67 0 0.34 0 0 Z " fill="#534461" transform="translate(600,381)"/>
<path d="M0 0 C0.33 0 0.66 0 1 0 C1.0493521 5.51756476 1.08569662 11.03500171 1.10986328 16.55273438 C1.11993534 18.43068682 1.13359362 20.30862353 1.15087891 22.18652344 C1.17507453 24.8822009 1.18647083 27.57767146 1.1953125 30.2734375 C1.20563507 31.11619232 1.21595764 31.95894714 1.22659302 32.82723999 C1.22699144 34.88621247 1.12257588 36.94467935 1 39 C0.34 39.66 -0.32 40.32 -1 41 C-1.33 33.74 -1.66 26.48 -2 19 C-2.66 19 -3.32 19 -4 19 C-4.33 15.37 -4.66 11.74 -5 8 C-5.66 8.45375 -6.32 8.9075 -7 9.375 C-11.87793255 12.01721346 -16.4688538 13 -22 13 C-22 12.34 -22 11.68 -22 11 C-16.555 10.01 -16.555 10.01 -11 9 C-10.67 8.01 -10.34 7.02 -10 6 C-7.4375 4.3125 -7.4375 4.3125 -5 3 C-4.67 3.33 -4.34 3.66 -4 4 C-3.34 3.01 -2.68 2.02 -2 1 C-1.34 1.33 -0.68 1.66 0 2 C0 1.34 0 0.68 0 0 Z " fill="#BAE475" transform="translate(782,308)"/>
<path d="M0 0 C0.66 0.33 1.32 0.66 2 1 C1.67 9.58 1.34 18.16 1 27 C-5.27 27 -11.54 27 -18 27 C-18 18.75 -18 10.5 -18 2 C-17.01 2.495 -17.01 2.495 -16 3 C-16 9.6 -16 16.2 -16 23 C-13.916875 22.95875 -11.83375 22.9175 -9.6875 22.875 C-3.375 22.75 -3.375 22.75 0 25 C0 16.75 0 8.5 0 0 Z " fill="#1B2120" transform="translate(583,292)"/>
<path d="M0 0 C0.66 0 1.32 0 2 0 C2.16820551 1.93736701 2.33451095 3.87489906 2.5 5.8125 C2.5928125 6.89144531 2.685625 7.97039062 2.78125 9.08203125 C3 12 3 12 3 15 C0.625 16.75 0.625 16.75 -2 18 C-2.66 17.67 -3.32 17.34 -4 17 C-5.87056791 16.7724985 -7.74685958 16.59037189 -9.625 16.4375 C-10.62789062 16.35371094 -11.63078125 16.26992188 -12.6640625 16.18359375 C-13.43492187 16.12300781 -14.20578125 16.06242187 -15 16 C-15 16.66 -15 17.32 -15 18 C-16.65 17.67 -18.3 17.34 -20 17 C-20 13.7 -20 10.4 -20 7 C-19.67 7 -19.34 7 -19 7 C-18.67 8.65 -18.34 10.3 -18 12 C-12.06 12.33 -6.12 12.66 0 13 C0 8.71 0 4.42 0 0 Z " fill="#85CC99" transform="translate(548,310)"/>
<path d="M0 0 C4.62 0 9.24 0 14 0 C14 0.33 14 0.66 14 1 C11.69 1 9.38 1 7 1 C6.34 2.32 5.68 3.64 5 5 C4.34 5 3.68 5 3 5 C3.165 6.051875 3.33 7.10375 3.5 8.1875 C3.89569678 11.20468796 4.09178971 13.97093972 4 17 C4.99 16.34 5.98 15.68 7 15 C7 15.99 7 16.98 7 18 C10.96 17.505 10.96 17.505 15 17 C14.34 17.33 13.68 17.66 13 18 C13 18.66 13 19.32 13 20 C8.71 20 4.42 20 0 20 C0 13.4 0 6.8 0 0 Z " fill="#35C2A4" transform="translate(515,357)"/>
<path d="M0 0 C14.19 0 28.38 0 43 0 C43 0.66 43 1.32 43 2 C42.07058594 2.06058594 41.14117188 2.12117188 40.18359375 2.18359375 C32.72016601 2.65510038 32.72016601 2.65510038 25.3125 3.625 C20.15655155 4.20869228 13.72899636 4.36449818 9 2 C6.6670134 1.95977609 4.33293334 1.95679753 2 2 C1.67 4.31 1.34 6.62 1 9 C0.67 9 0.34 9 0 9 C0 6.03 0 3.06 0 0 Z " fill="#A8E18A" transform="translate(515,295)"/>
<path d="M0 0 C2 1 2 1 2.625 2.71484375 C3.67881287 8.96088046 2.24733455 12.54157626 -1.23828125 17.7578125 C-3.59240274 20.75396713 -5.85066067 22.85272318 -9 25 C-9.66 25 -10.32 25 -11 25 C-10.8125 22.125 -10.8125 22.125 -10 19 C-8.3364521 18.32558869 -6.66933058 17.6599679 -5 17 C-3.3658325 14.76349512 -2.24597544 12.49195088 -1 10 C-1.66 10 -2.32 10 -3 10 C-3.36629408 5.72656908 -2.40814077 3.51187196 0 0 Z " fill="#91D185" transform="translate(779,342)"/>
<path d="M0 0 C23.76 0 47.52 0 72 0 C72 0.33 72 0.66 72 1 C44.06349206 3.03174603 44.06349206 3.03174603 40 1 C40 1.66 40 2.32 40 3 C37.66705225 3.04241723 35.33297433 3.04092937 33 3 C32.505 2.505 32.505 2.505 32 2 C29.62661361 1.84028023 27.27881728 1.7407567 24.90234375 1.68359375 C24.19348526 1.66281265 23.48462677 1.64203156 22.75428772 1.62062073 C20.48212695 1.55505402 18.20984736 1.4962077 15.9375 1.4375 C14.40037817 1.39432151 12.8632685 1.35070745 11.32617188 1.30664062 C7.5509041 1.19936551 3.7755164 1.09811863 0 1 C0 0.67 0 0.34 0 0 Z " fill="#08171E" transform="translate(568,372)"/>
<path d="M0 0 C1.32 0.99 2.64 1.98 4 3 C3.34 3.99 2.68 4.98 2 6 C1.37738281 5.86722656 0.75476563 5.73445313 0.11328125 5.59765625 C-10.21713532 3.62378307 -20.49952802 3.40386431 -31 3 C-31 9.6 -31 16.2 -31 23 C-27.535 22.505 -27.535 22.505 -24 22 C-23.34 22.66 -22.68 23.32 -22 24 C-26.95 24.495 -26.95 24.495 -32 25 C-32 17.41 -32 9.82 -32 2 C-21.77 2 -11.54 2 -1 2 C-0.67 1.34 -0.34 0.68 0 0 Z " fill="#4FAA9C" transform="translate(546,354)"/>
<path d="M0 0 C0.33 0 0.66 0 1 0 C1 7.59 1 15.18 1 23 C8.92 21.68 16.84 20.36 25 19 C24.01 21.475 24.01 21.475 23 24 C22.67 23.34 22.34 22.68 22 22 C21.01 22.33 20.02 22.66 19 23 C17.27204648 23.06802967 15.54164635 23.08495645 13.8125 23.0625 C12.91144531 23.05347656 12.01039063 23.04445313 11.08203125 23.03515625 C10.39496094 23.02355469 9.70789063 23.01195312 9 23 C8.67 24.65 8.34 26.3 8 28 C5.69 27.67 3.38 27.34 1 27 C-0.0394775 23.8815675 -0.11494838 21.72524414 -0.09765625 18.45703125 C-0.09443359 17.38388672 -0.09121094 16.31074219 -0.08789062 15.20507812 C-0.07951172 14.08552734 -0.07113281 12.96597656 -0.0625 11.8125 C-0.05798828 10.68134766 -0.05347656 9.55019531 -0.04882812 8.38476562 C-0.03703498 5.58979073 -0.0205765 2.7949218 0 0 Z " fill="#152A34" transform="translate(513,356)"/>
<path d="M0 0 C-3.3226355 3.02148426 -5.53012893 3.36734499 -9.96875 3.328125 C-11.76675049 3.32135742 -11.76675049 3.32135742 -13.60107422 3.31445312 C-14.88771973 3.29318359 -16.17436523 3.27191406 -17.5 3.25 C-18.81887207 3.23904297 -20.13774414 3.22808594 -21.49658203 3.21679688 C-35.00436777 3.08587106 -48.50545074 2.59150741 -62 2 C-62 2.66 -62 3.32 -62 4 C-67.94 3.01 -67.94 3.01 -74 2 C-74 1.67 -74 1.34 -74 1 C-65.38518915 0.86899468 -56.77036991 0.73856146 -48.15553951 0.60884857 C-44.15487688 0.54859312 -40.15421736 0.48814428 -36.15356445 0.42724609 C-32.28916156 0.36842915 -28.42475117 0.31012987 -24.56033516 0.25218201 C-23.08963304 0.23003892 -21.61893367 0.20771268 -20.14823723 0.18519592 C-18.08052135 0.15357065 -16.01279647 0.12261029 -13.94506836 0.09179688 C-12.77036484 0.07403198 -11.59566132 0.05626709 -10.38536072 0.03796387 C-6.92327607 -0.00086039 -3.4622719 -0.00647898 0 0 Z " fill="#161318" transform="translate(763,372)"/>
<path d="M0 0 C0.33 0 0.66 0 1 0 C1.0493521 5.51756476 1.08569662 11.03500171 1.10986328 16.55273438 C1.11993534 18.43068682 1.13359362 20.30862353 1.15087891 22.18652344 C1.17507453 24.8822009 1.18647083 27.57767146 1.1953125 30.2734375 C1.20563507 31.11619232 1.21595764 31.95894714 1.22659302 32.82723999 C1.22699144 34.88621247 1.12257588 36.94467935 1 39 C0.34 39.66 -0.32 40.32 -1 41 C-1.70126363 30.76155103 -2.18033984 20.63239503 -1.625 10.375 C-1.58189697 9.56442139 -1.53879395 8.75384277 -1.49438477 7.91870117 C-1.13960435 2.2792087 -1.13960435 2.2792087 0 0 Z " fill="#B3DA94" transform="translate(782,308)"/>
<path d="M0 0 C1.06863281 0.01804687 2.13726563 0.03609375 3.23828125 0.0546875 C4.04652344 0.07789063 4.85476563 0.10109375 5.6875 0.125 C2.6506457 2.76022856 0.62100957 3.52096778 -3.375 3.75 C-6.32900481 3.93656872 -8.47826547 4.18025516 -11.3125 5.125 C-12.3025 5.125 -13.2925 5.125 -14.3125 5.125 C-14.3125 5.785 -14.3125 6.445 -14.3125 7.125 C-15.385 7.104375 -16.4575 7.08375 -17.5625 7.0625 C-20.53578174 7.1120547 -22.52256039 7.3810161 -25.3125 8.125 C-26.97873639 8.16286901 -28.64647597 8.17127845 -30.3125 8.125 C-30.3125 7.135 -30.3125 6.145 -30.3125 5.125 C-28.6728125 5.2178125 -28.6728125 5.2178125 -27 5.3125 C-20.7539959 5.32361389 -14.55461664 3.57979593 -8.875 1.03125 C-5.78366463 -0.06202714 -3.26939023 -0.07185473 0 0 Z " fill="#5CC791" transform="translate(622.3125,351.875)"/>
<path d="M0 0 C0.99 0.33 1.98 0.66 3 1 C3 5.62 3 10.24 3 15 C6.11143567 16.03714522 8.49468096 16.20031861 11.76171875 16.31640625 C13.43911133 16.37924805 13.43911133 16.37924805 15.15039062 16.44335938 C16.31763672 16.48267578 17.48488281 16.52199219 18.6875 16.5625 C19.86634766 16.60568359 21.04519531 16.64886719 22.25976562 16.69335938 C25.17305883 16.79951176 28.08643757 16.90156242 31 17 C31 17.33 31 17.66 31 18 C20.77 18 10.54 18 0 18 C0 12.06 0 6.12 0 0 Z " fill="#75CCA1" transform="translate(514,320)"/>
<path d="M0 0 C0.33 0 0.66 0 1 0 C1 11.88 1 23.76 1 36 C-0.485 36.495 -0.485 36.495 -2 37 C-2.29087369 24.52475044 -1.43520129 12.39142544 0 0 Z " fill="#1A1420" transform="translate(693,384)"/>
<path d="M0 0 C0.66 0 1.32 0 2 0 C2.33 1.98 2.66 3.96 3 6 C1.9790625 6.061875 1.9790625 6.061875 0.9375 6.125 C-2.66630853 7.19847488 -4.54991717 8.98571891 -7.25390625 11.52734375 C-9.11450876 13.09657674 -10.72203415 14.13843272 -13 15 C-16 14 -16 14 -19 12 C-18.20335937 11.69707031 -17.40671875 11.39414062 -16.5859375 11.08203125 C-6.775627 7.51036436 -6.775627 7.51036436 0 0 Z " fill="#1B2321" transform="translate(777,359)"/>
<path d="M0 0 C-0.33 0.99 -0.66 1.98 -1 3 C-3.72265625 3.94921875 -3.72265625 3.94921875 -7.0625 4.6875 C-8.16722656 4.93886719 -9.27195312 5.19023437 -10.41015625 5.44921875 C-11.69212891 5.72185547 -11.69212891 5.72185547 -13 6 C-13 6.66 -13 7.32 -13 8 C-14.0209375 7.690625 -14.0209375 7.690625 -15.0625 7.375 C-18.79925203 6.89796783 -21.40975011 7.92922372 -25 9 C-28.4375 9.125 -28.4375 9.125 -31 9 C-30.67 8.34 -30.34 7.68 -30 7 C-27.69 7 -25.38 7 -23 7 C-22.67 6.01 -22.34 5.02 -22 4 C-21.01 4.020625 -20.02 4.04125 -19 4.0625 C-14.93431926 4.07081428 -11.02337824 3.56468467 -7 3 C-7 2.34 -7 1.68 -7 1 C-2.25 0 -2.25 0 0 0 Z " fill="#AFE282" transform="translate(759,319)"/>
<path d="M0 0 C0.495 1.485 0.495 1.485 1 3 C-10.88 3 -22.76 3 -35 3 C-35 2.67 -35 2.34 -35 2 C-27.6719296 1.17417348 -20.36732373 0.72595106 -13 0.4375 C-11.44732422 0.37272461 -11.44732422 0.37272461 -9.86328125 0.30664062 C-2.41629464 0 -2.41629464 0 0 0 Z " fill="#140E19" transform="translate(690,377)"/>
<path d="M0 0 C2.0625 0.4375 2.0625 0.4375 4 1 C3.48446121 7.49850211 2.53332291 13.66226532 1 20 C0.34 19.67 -0.32 19.34 -1 19 C-1.02683987 16.02077407 -1.04676037 13.04178705 -1.0625 10.0625 C-1.07087891 9.21236328 -1.07925781 8.36222656 -1.08789062 7.48632812 C-1.09111328 6.67744141 -1.09433594 5.86855469 -1.09765625 5.03515625 C-1.10289307 4.2862915 -1.10812988 3.53742676 -1.11352539 2.76586914 C-1 1 -1 1 0 0 Z " fill="#A5DD96" transform="translate(586,295)"/>
<path d="M0 0 C0 0.66 0 1.32 0 2 C0.99 2.33 1.98 2.66 3 3 C-12.51 3 -28.02 3 -44 3 C-44 2.67 -44 2.34 -44 2 C-42.79875488 1.97494385 -41.59750977 1.9498877 -40.35986328 1.92407227 C-35.91313571 1.83006856 -31.46656693 1.72983083 -27.02001953 1.62768555 C-25.09362496 1.58430999 -23.16719129 1.54263686 -21.24072266 1.50268555 C-18.47546592 1.44504638 -15.7104065 1.38133384 -12.9453125 1.31640625 C-12.0806839 1.29969376 -11.2160553 1.28298126 -10.32522583 1.26576233 C-6.70941235 1.17569103 -3.40199501 0 0 0 Z " fill="#87D996" transform="translate(756,368)"/>
<path d="M0 0 C0.66 0.33 1.32 0.66 2 1 C2 6.28 2 11.56 2 17 C1.01 17.33 0.02 17.66 -1 18 C-1.02698422 15.56242587 -1.04683099 13.12515085 -1.0625 10.6875 C-1.07087891 9.99720703 -1.07925781 9.30691406 -1.08789062 8.59570312 C-1.10307906 5.4516975 -1.00193327 3.00579981 0 0 Z " fill="#B5E478" transform="translate(779,309)"/>
<path d="M0 0 C2.64 0 5.28 0 8 0 C8 0.99 8 1.98 8 3 C2.54873741 5.23891142 -2.13190493 6.47606294 -8 7 C-8 6.34 -8 5.68 -8 5 C-4.86501708 3.14223235 -2.62528568 2.79859524 1 3 C0.67 2.01 0.34 1.02 0 0 Z " fill="#45A894" transform="translate(536,370)"/>
<path d="M0 0 C0.66 0 1.32 0 2 0 C2.02692484 2.29160319 2.04636124 4.58329546 2.0625 6.875 C2.07410156 8.15117187 2.08570313 9.42734375 2.09765625 10.7421875 C2 14 2 14 1 16 C0.34 16 -0.32 16 -1 16 C-1.92350727 13.22947819 -2.16329585 11.43311242 -2.1875 8.5625 C-2.20167969 7.80066406 -2.21585938 7.03882813 -2.23046875 6.25390625 C-1.97612666 3.76652685 -1.24017196 2.15191894 0 0 Z " fill="#DBEB98" transform="translate(781,294)"/>
<path d="M0 0 C-3 2 -3 2 -6 3 C-8.63991268 5.63991268 -8.30240797 6.97946296 -8.4140625 10.6640625 C-8.45273437 11.78554688 -8.49140625 12.90703125 -8.53125 14.0625 C-8.5621875 15.238125 -8.593125 16.41375 -8.625 17.625 C-8.66367187 18.80835938 -8.70234375 19.99171875 -8.7421875 21.2109375 C-8.83668845 24.14046691 -8.92224558 27.06998597 -9 30 C-9.33 30 -9.66 30 -10 30 C-10 20.43 -10 10.86 -10 1 C-6.33418546 0.26683709 -3.63300168 -0.10380005 0 0 Z " fill="#6D5C7F" transform="translate(565,450)"/>
<path d="M0 0 C0.66 0.33 1.32 0.66 2 1 C1.855625 1.680625 1.71125 2.36125 1.5625 3.0625 C1.14573464 5.23894134 0.80278645 7.42979827 0.5 9.625 C0 13 0 13 -1 16 C-1.99 15.67 -2.98 15.34 -4 15 C-3.85904936 13.3745692 -3.71207913 11.74965949 -3.5625 10.125 C-3.48128906 9.22007812 -3.40007813 8.31515625 -3.31640625 7.3828125 C-3 5 -3 5 -2 3 C-1.34 3 -0.68 3 0 3 C0 2.01 0 1.02 0 0 Z " fill="#5EC997" transform="translate(550,339)"/>
<path d="M0 0 C4.62 0 9.24 0 14 0 C14 0.33 14 0.66 14 1 C11.69 1 9.38 1 7 1 C6.773125 1.61875 6.54625 2.2375 6.3125 2.875 C4.62070165 5.61410209 3.00755839 6.05024472 0 7 C0 4.69 0 2.38 0 0 Z " fill="#42BFA1" transform="translate(515,357)"/>
<path d="M0 0 C1.32 0.99 2.64 1.98 4 3 C3.01 4.485 3.01 4.485 2 6 C0.0830014 5.68954268 -1.83358723 5.37655329 -3.75 5.0625 C-4.81734375 4.88847656 -5.8846875 4.71445312 -6.984375 4.53515625 C-9.36347593 4.11295829 -11.66915211 3.62797116 -14 3 C-14 2.67 -14 2.34 -14 2 C-9.71 2 -5.42 2 -1 2 C-0.67 1.34 -0.34 0.68 0 0 Z " fill="#4FC19F" transform="translate(546,354)"/>
<path d="M0 0 C0.66 0.33 1.32 0.66 2 1 C1.64989059 10.17286652 1.64989059 10.17286652 -1.0625 13.625 C-1.701875 14.07875 -2.34125 14.5325 -3 15 C-2.34 13.35 -1.68 11.7 -1 10 C-1.66 10 -2.32 10 -3 10 C-3.36629408 5.72656908 -2.40814077 3.51187196 0 0 Z " fill="#95DB81" transform="translate(779,342)"/>
<path d="M0 0 C0.99 0.33 1.98 0.66 3 1 C5.22574335 1.22451458 7.45581519 1.40782878 9.6875 1.5625 C10.86699219 1.64628906 12.04648437 1.73007812 13.26171875 1.81640625 C14.61716797 1.90728516 14.61716797 1.90728516 16 2 C16 2.33 16 2.66 16 3 C10.39 3 4.78 3 -1 3 C-1 7.95 -1 12.9 -1 18 C-1.33 18 -1.66 18 -2 18 C-2.19441368 15.7089095 -2.38033135 13.41709663 -2.5625 11.125 C-2.66691406 9.84882813 -2.77132812 8.57265625 -2.87890625 7.2578125 C-3 4 -3 4 -2 2 C-1.34 2 -0.68 2 0 2 C0 1.34 0 0.68 0 0 Z " fill="#A3DBA6" transform="translate(531,304)"/>
<path d="M0 0 C2.1480242 0.03799226 4.29490133 0.15526658 6.4375 0.3125 C8.19900391 0.43044922 8.19900391 0.43044922 9.99609375 0.55078125 C13 1 13 1 15 3 C8.4 3 1.8 3 -5 3 C-3.68 2.34 -2.36 1.68 -1 1 C-0.67 0.67 -0.34 0.34 0 0 Z " fill="#35BA99" transform="translate(553,368)"/>
<path d="M0 0 C0.33 0.99 0.66 1.98 1 3 C1.66 3 2.32 3 3 3 C3 3.66 3 4.32 3 5 C-1.62 5 -6.24 5 -11 5 C-10 3 -10 3 -8 2 C-6.7934375 2.0309375 -6.7934375 2.0309375 -5.5625 2.0625 C-2.75471394 2.22232131 -2.75471394 2.22232131 0 0 Z " fill="#69557F" transform="translate(567,544)"/>
<path d="M0 0 C0.33 0 0.66 0 1 0 C1.103125 1.11375 1.20625 2.2275 1.3125 3.375 C1.539375 4.57125 1.76625 5.7675 2 7 C2.99 7.66 3.98 8.32 5 9 C4.34 9 3.68 9 3 9 C3.04125 10.093125 3.0825 11.18625 3.125 12.3125 C3 16 3 16 1 19 C-0.65497356 15.69005287 -0.10084335 12.00877 -0.0625 8.375 C-0.05798828 7.57320313 -0.05347656 6.77140625 -0.04882812 5.9453125 C-0.03703168 3.96350994 -0.01909605 1.98174567 0 0 Z " fill="#37313C" transform="translate(690,413)"/>
<path d="M0 0 C0.33 0 0.66 0 1 0 C1.33 1.98 1.66 3.96 2 6 C-3.28 6 -8.56 6 -14 6 C-11.11387138 4.07591425 -10.2478839 3.72661088 -7 3.4375 C-4.40222383 3.1964185 -2.51908403 2.83969468 0 2 C0 1.34 0 0.68 0 0 Z " fill="#1B2423" transform="translate(545,317)"/>
<path d="M0 0 C0.66 0 1.32 0 2 0 C2.33 1.32 2.66 2.64 3 4 C2.01 4 1.02 4 0 4 C-1.68873879 5.64429829 -3.35305515 7.31384218 -5 9 C-6.63377642 10.05287814 -8.29181597 11.0727001 -10 12 C-9.67 11.01 -9.34 10.02 -9 9 C-8.34 9 -7.68 9 -7 9 C-7 8.34 -7 7.68 -7 7 C-5.37660195 5.29115995 -3.70680947 3.62553283 -2 2 C-1.34 1.34 -0.68 0.68 0 0 Z " fill="#605171" transform="translate(580,436)"/>
<path d="M0 0 C1.98 0 3.96 0 6 0 C6.33 1.32 6.66 2.64 7 4 C4.69 4.33 2.38 4.66 0 5 C0 3.35 0 1.7 0 0 Z " fill="#151122" transform="translate(553,376)"/>
<path d="M0 0 C0.66 0 1.32 0 2 0 C2.22142255 1.95689659 2.4267568 3.91561952 2.625 5.875 C2.74101563 6.96554687 2.85703125 8.05609375 2.9765625 9.1796875 C2.98429688 10.11039062 2.99203125 11.04109375 3 12 C2.34 12.66 1.68 13.32 1 14 C0 13 0 13 -0.09765625 10.05859375 C-0.08605469 8.86363281 -0.07445312 7.66867187 -0.0625 6.4375 C-0.05347656 5.23996094 -0.04445313 4.04242188 -0.03515625 2.80859375 C-0.02355469 1.88175781 -0.01195312 0.95492188 0 0 Z " fill="#93D19E" transform="translate(548,310)"/>
<path d="M0 0 C7.26 0 14.52 0 22 0 C20 2 20 2 16.41015625 2.16015625 C14.96074855 2.13753005 13.51147413 2.10455466 12.0625 2.0625 C6.45803602 1.86183001 6.45803602 1.86183001 1 3 C0.67 2.01 0.34 1.02 0 0 Z " fill="#6F5E83" transform="translate(572,533)"/>
<path d="M0 0 C-0.33 0.99 -0.66 1.98 -1 3 C-5.380916 4.69262664 -10.32624426 5.30153263 -15 5 C-11.77208445 2.8480563 -10.71599191 2.79913557 -7 3 C-7 2.34 -7 1.68 -7 1 C-2.25 0 -2.25 0 0 0 Z " fill="#BCE883" transform="translate(759,319)"/>
<path d="M0 0 C0.66 0.66 1.32 1.32 2 2 C1.85412374 6.95979273 -1.14176469 11.10855125 -4 15 C-4.33 15 -4.66 15 -5 15 C-5.25 12.75 -5.25 12.75 -5 10 C-3.66666667 8.66666667 -2.33333333 7.33333333 -1 6 C-0.19684346 2.85518209 -0.19684346 2.85518209 0 0 Z " fill="#99C78A" transform="translate(780,347)"/>
<path d="M0 0 C4.29 0 8.58 0 13 0 C12.67 0.99 12.34 1.98 12 3 C11.01 2.67 10.02 2.34 9 2 C6.66700175 1.96045766 4.33291811 1.95598268 2 2 C1.67 4.31 1.34 6.62 1 9 C0.67 9 0.34 9 0 9 C0 6.03 0 3.06 0 0 Z " fill="#ABDE99" transform="translate(515,295)"/>
<path d="M0 0 C0.66 1.32 1.32 2.64 2 4 C0.1875 5.5625 0.1875 5.5625 -2 7 C-2.99 6.67 -3.98 6.34 -5 6 C-3.86695008 2.60085025 -2.87481525 1.94745549 0 0 Z " fill="#C6EC7F" transform="translate(776,311)"/>
<path d="M0 0 C0.66 0 1.32 0 2 0 C2.28571429 7.42857143 2.28571429 7.42857143 0 11 C-1.05404945 7.01803543 -0.84098656 4.01804691 0 0 Z " fill="#1C1625" transform="translate(693,422)"/>
<path d="M0 0 C0.66 0 1.32 0 2 0 C2.33 1.98 2.66 3.96 3 6 C1.35 6.33 -0.3 6.66 -2 7 C-2 3 -2 3 0 0 Z " fill="#1B1E1E" transform="translate(777,359)"/>
<path d="M0 0 C0.66 0 1.32 0 2 0 C2 2.64 2 5.28 2 8 C1.01 8 0.02 8 -1 8 C-1.04241723 5.66705225 -1.04092937 3.33297433 -1 1 C-0.67 0.67 -0.34 0.34 0 0 Z " fill="#A6DF86" transform="translate(587,296)"/>
<path d="M0 0 C1.98 0 3.96 0 6 0 C6 1.32 6 2.64 6 4 C5.401875 3.814375 4.80375 3.62875 4.1875 3.4375 C1.83591238 2.77906313 1.83591238 2.77906313 -1 4 C-0.67 2.68 -0.34 1.36 0 0 Z " fill="#69517E" transform="translate(570,512)"/>
<path d="M0 0 C-3 2 -3 2 -6 3 C-7.0194119 3.98020375 -8.02246356 4.97803008 -9 6 C-9.33 6 -9.66 6 -10 6 C-10 4.35 -10 2.7 -10 1 C-6.59437148 0.22157062 -3.49234244 -0.09978121 0 0 Z " fill="#655375" transform="translate(565,450)"/>
<path d="M0 0 C2.64 0 5.28 0 8 0 C8 0.99 8 1.98 8 3 C5.69 3 3.38 3 1 3 C0.67 2.01 0.34 1.02 0 0 Z " fill="#38C8A3" transform="translate(536,370)"/>
<path d="M0 0 C0 0.99 0 1.98 0 3 C-3 5.1875 -3 5.1875 -6 7 C-6.99 6.34 -7.98 5.68 -9 5 C-6.03 3.35 -3.06 1.7 0 0 Z " fill="#1F3624" transform="translate(773,364)"/>
<path d="M0 0 C0.99 0.33 1.98 0.66 3 1 C1.92598892 3.91517292 1.22189824 5.77810176 -1 8 C-1.04241723 5.66705225 -1.04092937 3.33297433 -1 1 C-0.67 0.67 -0.34 0.34 0 0 Z " fill="#A0E485" transform="translate(517,296)"/>
<path d="M0 0 C0.66 0.99 1.32 1.98 2 3 C1.125 5.6875 1.125 5.6875 0 8 C-0.66 7.67 -1.32 7.34 -2 7 C-1.125 1.125 -1.125 1.125 0 0 Z " fill="#1B2020" transform="translate(782,351)"/>
<path d="M0 0 C0.66 0.33 1.32 0.66 2 1 C1.67 3.31 1.34 5.62 1 8 C-1 6 -1 6 -1.1875 3.4375 C-1 1 -1 1 0 0 Z " fill="#A0DF7B" transform="translate(779,342)"/>
</svg>
